<!DOCTYPE svg PUBLIC "-//W3C//DTD SVG 1//EN" "http://www.w3.org/Graphics/SVG/1/DTD/svg11.dtd">
<svg
  version="1"
  x="0px"
  y="0px"
  xmlns="http://www.w3.org/2000/svg"
  width="500px"
  height="500px"
  viewBox="0 0 500 500"
>
  <g id="morse-circle">
    <polygon
      points="103,101 153,144 202,186 162,135 122,83 112,92"
      fill="hsl(229, 60%, 50%)"
    ></polygon>
    <polygon
      points="194,193 198,190 202,186 153,144 103,101 149,147"
      fill="hsl(227, 60%, 50%)"
    ></polygon>
    <polygon
      points="259,167 273,104 288,41 272,40 257,38 258,103"
      fill="hsl(276, 60%, 50%)"
    ></polygon>
    <polygon
      points="259,167 288,108 317,49 302,45 288,41 273,104"
      fill="hsl(283, 60%, 50%)"
    ></polygon>
    <polygon
      points="259,167 265,168 271,168 294,108 317,49 288,108"
      fill="hsl(284, 60%, 50%)"
    ></polygon>
    <polygon
      points="271,168 278,170 284,171 300,110 317,49 294,108"
      fill="hsl(288, 60%, 50%)"
    ></polygon>
    <polygon
      points="287,172 318,117 349,61 337,56 325,51 306,112"
      fill="hsl(294, 60%, 50%)"
    ></polygon>
    <polygon
      points="287,172 292,174 297,176 323,119 349,61 318,117"
      fill="hsl(298, 60%, 50%)"
    ></polygon>
    <polygon
      points="300,178 339,128 378,79 367,72 356,65 328,121"
      fill="hsl(303, 60%, 50%)"
    ></polygon>
    <polygon
      points="300,178 305,181 309,184 344,131 378,79 339,128"
      fill="hsl(307, 60%, 50%)"
    ></polygon>
    <polygon
      points="322,196 376,163 429,130 419,119 410,107 366,151"
      fill="hsl(322, 60%, 50%)"
    ></polygon>
    <polygon
      points="322,196 383,176 444,157 437,144 429,130 376,163"
      fill="hsl(329, 60%, 50%)"
    ></polygon>
    <polygon
      points="330,205 387,181 444,157 383,176 322,196 326,201"
      fill="hsl(331, 60%, 50%)"
    ></polygon>
    <polygon
      points="336,216 390,187 444,157 387,181 330,205 333,211"
      fill="hsl(334, 60%, 50%)"
    ></polygon>
    <polygon
      points="338,219 397,204 457,188 452,176 448,163 393,191"
      fill="hsl(340, 60%, 50%)"
    ></polygon>
    <polygon
      points="342,229 399,209 457,188 397,204 338,219 340,224"
      fill="hsl(343, 60%, 50%)"
    ></polygon>
    <polygon
      points="346,247 406,254 466,260 466,245 465,230 406,238"
      fill="hsl(358, 60%, 50%)"
    ></polygon>
    <polygon
      points="346,259 406,260 466,260 406,254 346,247 346,253"
      fill="hsl(2, 60%, 50%)"
    ></polygon>
    <polygon
      points="344,272 405,266 466,260 406,260 346,259 345,266"
      fill="hsl(5, 60%, 50%)"
    ></polygon>
    <polygon
      points="344,272 404,281 463,290 465,275 466,260 405,266"
      fill="hsl(7, 60%, 50%)"
    ></polygon>
    <polygon
      points="341,286 401,292 461,298 402,286 344,275 342,281"
      fill="hsl(15, 60%, 50%)"
    ></polygon>
    <polygon
      points="341,286 397,305 454,323 458,310 461,298 401,292"
      fill="hsl(17, 60%, 50%)"
    ></polygon>
    <polygon
      points="334,300 392,315 451,331 395,310 339,289 337,294"
      fill="hsl(24, 60%, 50%)"
    ></polygon>
    <polygon
      points="334,300 386,329 438,358 444,344 451,331 392,315"
      fill="hsl(26, 60%, 50%)"
    ></polygon>
    <polygon
      points="327,310 382,334 438,358 386,329 334,300 330,305"
      fill="hsl(32, 60%, 50%)"
    ></polygon>
    <polygon
      points="421,383 430,371 438,358 382,334 327,310 374,347"
      fill="hsl(34, 60%, 50%)"
    ></polygon>
    <polygon
      points="316,322 366,355 416,389 370,351 325,313 320,318"
      fill="hsl(41, 60%, 50%)"
    ></polygon>
    <polygon
      points="306,330 361,359 416,389 366,355 316,322 311,326"
      fill="hsl(45, 60%, 50%)"
    ></polygon>
    <polygon
      points="306,330 350,371 395,411 406,400 416,389 361,359"
      fill="hsl(46, 60%, 50%)"
    ></polygon>
    <polygon
      points="371,429 383,420 395,411 350,371 306,330 338,379"
      fill="hsl(52, 60%, 50%)"
    ></polygon>
    <polygon
      points="280,341 307,395 333,449 312,393 290,338 285,340"
      fill="hsl(67, 60%, 50%)"
    ></polygon>
    <polygon
      points="308,457 320,453 333,449 307,395 280,341 294,399"
      fill="hsl(71, 60%, 50%)"
    ></polygon>
    <polygon
      points="264,344 282,402 301,459 289,401 277,342 270,343"
      fill="hsl(77, 60%, 50%)"
    ></polygon>
    <polygon
      points="240,464 252,404 264,344 258,344 252,344 246,404"
      fill="hsl(89, 60%, 50%)"
    ></polygon>
    <polygon
      points="240,464 270,461 301,459 282,402 264,344 252,404"
      fill="hsl(84, 60%, 50%)"
    ></polygon>
    <polygon
      points="240,464 255,464 271,464 286,461 301,459 270,461"
      fill="hsl(84, 60%, 50%)"
    ></polygon>
    <polygon
      points="206,459 227,402 248,344 243,343 238,342 222,401"
      fill="hsl(98, 60%, 50%)"
    ></polygon>
    <polygon
      points="206,459 219,461 233,463 241,404 248,344 227,402"
      fill="hsl(97, 60%, 50%)"
    ></polygon>
    <polygon
      points="143,433 182,385 221,337 216,334 211,332 177,383"
      fill="hsl(116, 60%, 50%)"
    ></polygon>
    <polygon
      points="143,433 155,440 167,446 194,391 221,337 182,385"
      fill="hsl(115, 60%, 50%)"
    ></polygon>
    <polygon
      points="91,389 145,355 198,322 194,318 189,313 140,351"
      fill="hsl(134, 60%, 50%)"
    ></polygon>
    <polygon
      points="91,389 150,359 208,330 203,326 198,322 145,355"
      fill="hsl(131, 60%, 50%)"
    ></polygon>
    <polygon
      points="112,411 160,371 208,330 150,359 91,389 102,400"
      fill="hsl(131, 60%, 50%)"
    ></polygon>
    <polygon
      points="112,411 124,420 137,429 172,379 208,330 160,371"
      fill="hsl(124, 60%, 50%)"
    ></polygon>
    <polygon
      points="45,298 110,292 174,287 172,281 171,275 108,286"
      fill="hsl(163, 60%, 50%)"
    ></polygon>
    <polygon
      points="54,327 114,307 174,287 110,292 45,298 50,312"
      fill="hsl(161, 60%, 50%)"
    ></polygon>
    <polygon
      points="54,327 117,313 179,299 177,293 174,287 114,307"
      fill="hsl(154, 60%, 50%)"
    ></polygon>
    <polygon
      points="67,355 123,327 179,299 117,313 54,327 61,341"
      fill="hsl(152, 60%, 50%)"
    ></polygon>
    <polygon
      points="41,264 105,268 170,272 169,266 168,261 105,262"
      fill="hsl(172, 60%, 50%)"
    ></polygon>
    <polygon
      points="44,290 107,281 170,272 105,268 41,264 42,277"
      fill="hsl(171, 60%, 50%)"
    ></polygon>
    <polygon
      points="49,193 112,206 176,219 118,191 59,163 54,178"
      fill="hsl(200, 60%, 50%)"
    ></polygon>
    <polygon
      points="49,193 110,212 172,231 174,225 176,219 112,206"
      fill="hsl(196, 60%, 50%)"
    ></polygon>
    <polygon
      points="43,222 107,226 172,231 110,212 49,193 46,207"
      fill="hsl(192, 60%, 50%)"
    ></polygon>
    <polygon
      points="43,222 106,233 169,243 171,237 172,231 107,226"
      fill="hsl(188, 60%, 50%)"
    ></polygon>
    <polygon
      points="78,130 135,163 192,196 144,151 97,107 87,119"
      fill="hsl(219, 60%, 50%)"
    ></polygon>
    <polygon
      points="63,157 127,176 192,196 135,163 78,130 70,144"
      fill="hsl(212, 60%, 50%)"
    ></polygon>
    <polygon
      points="63,157 124,181 184,205 188,201 192,196 127,176"
      fill="hsl(211, 60%, 50%)"
    ></polygon>
    <polygon
      points="63,157 120,187 178,216 181,211 184,205 124,181"
      fill="hsl(207, 60%, 50%)"
    ></polygon>
    <polygon
      points="158,61 193,117 227,172 205,112 183,51 170,56"
      fill="hsl(248, 60%, 50%)"
    ></polygon>
    <polygon
      points="217,176 222,174 227,172 193,117 158,61 188,119"
      fill="hsl(246, 60%, 50%)"
    ></polygon>
  </g>
  <g id="inner-circle">
    <polygon points="242,184 248,216 254,248 254,215 254,183 248,184"></polygon>
    <polygon points="256,248 266,217 277,187 271,186 265,184 261,216"></polygon>
    <polygon points="259,249 278,223 297,198 292,195 287,191 273,220"></polygon>
    <polygon points="261,250 287,232 313,214 309,210 306,205 283,228"></polygon>
    <polygon points="263,253 293,244 323,235 321,230 319,224 291,238"></polygon>
    <polygon points="263,256 295,257 326,258 326,252 325,246 294,251"></polygon>
    <polygon points="263,260 292,270 321,281 323,275 324,269 294,265"></polygon>
    <polygon points="261,262 285,281 309,300 313,296 316,291 289,277"></polygon>
    <polygon points="259,264 276,290 292,316 297,312 301,309 280,287"></polygon>
    <polygon points="271,325 277,323 282,321 269,293 257,265 264,295"></polygon>
    <polygon points="248,327 254,327 259,327 257,296 255,266 252,296"></polygon>
    <polygon points="225,321 231,323 237,325 245,295 252,265 239,293"></polygon>
    <polygon points="215,316 232,290 250,264 228,287 206,309 211,312"></polygon>
    <polygon points="198,300 223,281 247,262 219,277 191,291 195,296"></polygon>
    <polygon points="186,281 216,270 246,260 215,265 183,269 185,275"></polygon>
    <polygon points="182,258 214,257 245,256 214,251 183,246 182,252"></polygon>
    <polygon points="185,235 215,244 246,253 218,238 189,224 187,230"></polygon>
    <polygon points="195,214 221,232 248,250 225,228 202,205 198,210"></polygon>
    <polygon points="211,198 230,223 250,249 235,220 220,191 216,195"></polygon>
  </g>
  <g id="outer-circle">
    <polygon points="254,30 273,21 293,12 273,11 254,10 254,20"></polygon>
    <polygon points="254,30 271,31 289,33 291,22 293,12 273,21"></polygon>
    <polygon points="289,33 310,27 330,22 312,17 293,12 291,22"></polygon>
    <polygon points="324,42 327,32 330,22 310,27 289,33 307,37"></polygon>
    <polygon points="324,42 346,39 367,37 349,30 330,22 327,32"></polygon>
    <polygon points="357,56 362,46 367,37 346,39 324,42 341,49"></polygon>
    <polygon points="357,56 379,57 400,58 383,48 367,37 362,46"></polygon>
    <polygon points="387,74 394,66 400,58 379,57 357,56 372,65"></polygon>
    <polygon points="387,74 409,79 430,84 415,71 400,58 394,66"></polygon>
    <polygon points="415,98 422,91 430,84 409,79 387,74 401,86"></polygon>
    <polygon points="415,98 434,107 454,115 442,100 430,84 422,91"></polygon>
    <polygon points="438,126 446,121 454,115 434,107 415,98 426,112"></polygon>
    <polygon points="438,126 456,138 474,149 464,132 454,115 446,121"></polygon>
    <polygon points="455,157 464,153 474,149 456,138 438,126 446,142"></polygon>
    <polygon points="455,157 471,171 488,186 481,167 474,149 464,153"></polygon>
    <polygon points="468,191 478,188 488,186 471,171 455,157 461,174"></polygon>
    <polygon points="468,191 482,207 496,224 492,205 488,186 478,188"></polygon>
    <polygon points="475,226 486,225 496,224 482,207 468,191 472,209"></polygon>
    <polygon points="475,226 486,245 498,263 497,243 496,224 486,225"></polygon>
    <polygon points="477,263 487,263 498,263 486,245 475,226 476,244"></polygon>
    <polygon points="472,298 485,280 498,263 487,263 477,263 475,280"></polygon>
    <polygon points="472,298 482,300 492,302 495,283 498,263 485,280"></polygon>
    <polygon points="462,332 477,317 492,302 482,300 472,298 467,315"></polygon>
    <polygon points="462,332 472,336 482,340 487,321 492,302 477,317"></polygon>
    <polygon points="447,365 464,352 482,340 472,336 462,332 454,349"></polygon>
    <polygon points="447,365 456,370 465,375 474,358 482,340 464,352"></polygon>
    <polygon points="426,395 446,385 465,375 456,370 447,365 436,380"></polygon>
    <polygon points="426,395 434,401 443,408 454,392 465,375 446,385"></polygon>
    <polygon points="401,421 422,414 443,408 434,401 426,395 414,408"></polygon>
    <polygon points="401,421 409,429 416,436 429,422 443,408 422,414"></polygon>
    <polygon points="373,442 394,439 416,436 409,429 401,421 387,432"></polygon>
    <polygon points="373,442 378,451 384,460 400,448 416,436 394,439"></polygon>
    <polygon points="341,459 362,459 384,460 378,451 373,442 357,451"></polygon>
    <polygon points="341,459 345,469 349,478 367,469 384,460 362,459"></polygon>
    <polygon points="307,470 328,474 349,478 345,469 341,459 324,465"></polygon>
    <polygon points="307,470 309,480 312,491 331,484 349,478 328,474"></polygon>
    <polygon points="272,476 292,483 312,491 309,480 307,470 289,473"></polygon>
    <polygon points="273,497 292,494 312,491 292,483 272,476 272,486"></polygon>
    <polygon points="233,497 253,497 273,497 272,486 272,476 253,486"></polygon>
    <polygon points="233,497 253,486 272,476 254,476 235,476 234,486"></polygon>
    <polygon points="195,491 214,494 233,497 234,486 235,476 215,483"></polygon>
    <polygon points="195,491 215,483 235,476 218,473 200,470 198,480"></polygon>
    <polygon points="195,491 198,480 200,470 179,474 158,478 176,484"></polygon>
    <polygon points="158,478 179,474 200,470 183,465 166,459 162,469"></polygon>
    <polygon points="158,478 162,469 166,459 144,459 123,460 140,469"></polygon>
    <polygon points="123,460 144,459 166,459 150,451 134,442 128,451"></polygon>
    <polygon points="123,460 128,451 134,442 113,439 91,436 107,448"></polygon>
    <polygon points="91,436 113,439 134,442 119,432 105,421 98,429"></polygon>
    <polygon points="91,436 98,429 105,421 84,414 64,408 77,422"></polygon>
    <polygon points="64,408 84,414 105,421 93,408 80,395 72,401"></polygon>
    <polygon points="64,408 72,401 80,395 61,385 42,375 53,392"></polygon>
    <polygon points="42,375 61,385 80,395 70,380 60,365 51,370"></polygon>
    <polygon points="42,375 51,370 60,365 42,352 24,340 33,358"></polygon>
    <polygon points="24,340 42,352 60,365 52,349 44,332 34,336"></polygon>
    <polygon points="24,340 34,336 44,332 29,317 14,302 19,321"></polygon>
    <polygon points="14,302 29,317 44,332 39,315 34,298 24,300"></polygon>
    <polygon points="14,302 24,300 34,298 32,280 30,263 22,282"></polygon>
    <polygon points="14,302 22,282 30,263 20,263 10,263 12,283"></polygon>
    <polygon points="10,263 20,263 30,263 31,244 32,226 21,245"></polygon>
    <polygon points="10,263 21,245 32,226 21,225 10,224 10,243"></polygon>
    <polygon points="10,224 21,225 32,226 35,209 38,191 24,207"></polygon>
    <polygon points="10,224 24,207 38,191 28,188 18,186 14,205"></polygon>
    <polygon points="18,186 28,188 38,191 45,174 51,157 35,171"></polygon>
    <polygon points="18,186 35,171 51,157 42,153 32,149 25,167"></polygon>
    <polygon points="32,149 42,153 51,157 60,142 70,126 51,138"></polygon>
    <polygon points="32,149 51,138 70,126 61,121 52,115 42,132"></polygon>
    <polygon points="52,115 61,121 70,126 81,112 92,98 72,107"></polygon>
    <polygon points="52,115 72,107 92,98 84,91 77,84 64,100"></polygon>
    <polygon points="77,84 84,91 92,98 105,86 119,74 98,79"></polygon>
    <polygon points="77,84 98,79 119,74 113,66 106,58 91,71"></polygon>
    <polygon points="106,58 113,66 119,74 134,65 149,56 128,57"></polygon>
    <polygon points="106,58 128,57 149,56 144,46 139,37 123,48"></polygon>
    <polygon points="139,37 144,46 149,56 166,49 183,42 161,39"></polygon>
    <polygon points="139,37 161,39 183,42 179,32 176,22 158,30"></polygon>
    <polygon points="176,22 179,32 183,42 200,37 217,33 197,27"></polygon>
    <polygon points="176,22 197,27 217,33 216,22 214,12 195,17"></polygon>
    <polygon points="217,33 235,31 254,30 234,21 214,12 216,22"></polygon>
    <polygon points="214,12 234,21 254,30 254,20 254,10 234,11"></polygon>
  </g>
</svg>
